# xmcd
#
# Track frame offsets:
#	150
#	19240
#	41676
#	62853
#	77669
#	104829
#	131872
#	160009
#	184105
#	212034
#
# Disc length: 3115 seconds
#
# Revision: 0
# Processed by: cddbd v1.5.2PL0 Copyright (c) Steve Scherf et al.
# Submitted via: EZCDAudioConverter 8.0.2.1
#
DISCID=8e0c290a
DTITLE=Thanh Thanh - Tiếng hát Chim Đa Đa
DYEAR=2000
DGENRE=
TTITLE0=Tiếng hát Chim Đa Đa
TTITLE1=Phải duyên hay nợ
TTITLE2=Cay đắng tình đời
TTITLE3=Lần đầu nói dối
TTITLE4=Đoạn cuối tình yêu
TTITLE5=Tâm sự đời tôi
TTITLE6=Vẫy tay chào
TTITLE7=Phận gái thuyền quyên
TTITLE8=Loài hoa không vỡ
TTITLE9=Bạc trắng lửa hồng
EXTD=
EXTT0=
EXTT1=
EXTT2=
EXTT3=
EXTT4=
EXTT5=
EXTT6=
EXTT7=
EXTT8=
EXTT9=
PLAYORDER=
